<?xml version="1.0" encoding="UTF-8"?>
<svg version="1.1" xmlns="http://www.w3.org/2000/svg" width="1614" height="754">
<path d="M0 0 C0.82806152 0.40444336 1.65612305 0.80888672 2.50927734 1.22558594 C20.25849444 9.99299331 36.65526372 20.49039544 52 33 C52.82612793 33.67168213 52.82612793 33.67168213 53.66894531 34.35693359 C66.60256884 44.95808314 79.05448926 56.49571226 89 70 C85.00655708 74.93925835 80.73184332 79.14837354 75.97265625 83.34765625 C72.42854314 86.5098807 68.96367206 89.75023643 65.5 93 C61.36674352 96.87207933 57.22398688 100.72657172 53 104.5 C48.7983304 108.25423723 44.67649765 112.0879297 40.5625 115.9375 C39.91700195 116.53884766 39.27150391 117.14019531 38.60644531 117.75976562 C35.71151465 120.45701513 32.82581044 123.16058506 29.98046875 125.91015625 C18.12773608 137.15244775 5.39653051 142.98180185 -11 143 C-26.48120833 142.09514723 -38.6145776 137.35347666 -51.1484375 128.625 C-72.73528539 113.68280207 -98.09106352 105.32216759 -124 102 C-124.98355469 101.86851562 -125.96710938 101.73703125 -126.98046875 101.6015625 C-167.50817726 97.2739284 -214.17658888 105.55698395 -247.0625 131 C-249.06265604 132.64141838 -251.04252933 134.30790454 -253 136 C-253.50289551 136.42216797 -254.00579102 136.84433594 -254.52392578 137.27929688 C-285.34025513 163.22783631 -299.6767108 202.25321622 -303.46484375 241.43359375 C-303.72826209 244.95906936 -303.90124971 248.46645691 -304 252 C-304.03996094 252.94746094 -304.07992187 253.89492188 -304.12109375 254.87109375 C-304.9572601 290.33438424 -293.37694457 325.47851672 -271 353 C-270.33726074 353.82298584 -270.33726074 353.82298584 -269.66113281 354.66259766 C-243.13648417 387.39848101 -206.45213464 409.89002617 -164.16796875 414.5859375 C-121.26199882 418.49023219 -78.45488844 407.54487927 -40 389 C-39.13197754 388.58911133 -38.26395508 388.17822266 -37.36962891 387.75488281 C-18.98225875 379.02946409 -1.5789267 368.80810032 15 357 C5.70934692 355.48502685 -3.58674935 354.31277882 -12.9453125 353.30859375 C-14.33205857 353.15724927 -15.71876647 353.00555465 -17.10543823 352.85353088 C-22.18563383 352.29727647 -27.26645334 351.74682064 -32.34735107 351.19702148 C-36.67659819 350.72841675 -41.00554452 350.25720285 -45.33410263 349.78227425 C-47.35186476 349.56197266 -49.37001975 349.34555759 -51.38821411 349.1292572 C-53.21689529 348.92883568 -53.21689529 348.92883568 -55.08251953 348.72436523 C-56.15583527 348.60826401 -57.229151 348.49216278 -58.33499146 348.37254333 C-61 348 -61 348 -64 347 C-64.05116734 339.7083642 -64.08592757 332.41677557 -64.10986328 325.125 C-64.11985332 322.6500475 -64.13344995 320.1751066 -64.15087891 317.70019531 C-64.39114451 282.67795097 -64.39114451 282.67795097 -58.4375 271.6875 C-58.08236328 271.01654297 -57.72722656 270.34558594 -57.36132812 269.65429688 C-52.38336346 260.64862699 -46.17973124 255.26038787 -37.125 250.5625 C-36.48949219 250.23185547 -35.85398437 249.90121094 -35.19921875 249.56054688 C-22.95222661 243.68346916 -9.37676225 244.73573591 3.85546875 244.8046875 C5.96966925 244.80842327 8.08387149 244.81126757 10.19807434 244.81326294 C15.72999961 244.820855 21.26181784 244.84046494 26.79370117 244.8626709 C32.45164543 244.88322526 38.10960719 244.89228507 43.76757812 244.90234375 C54.8450988 244.92371543 65.92254046 244.95779724 77 245 C77.20535204 274.30870862 77.36460648 303.61736616 77.45958797 332.92664713 C77.47084421 336.38754133 77.48249312 339.8484341 77.49438477 343.30932617 C77.49792596 344.34281993 77.49792596 344.34281993 77.50153869 345.39719235 C77.54069153 356.55067669 77.611647 367.70374316 77.69437516 378.85697968 C77.77856576 390.30291592 77.82786071 401.74851318 77.84679645 413.19476789 C77.8585369 419.6234727 77.88615508 426.05123009 77.95157051 432.47963142 C78.01263996 438.52994489 78.03150817 444.57892039 78.01796913 450.62951279 C78.02044605 452.85036299 78.03836209 455.07125771 78.07284927 457.29184151 C78.32060349 474.06662211 78.32060349 474.06662211 75.08918571 478.79745293 C72.77833116 480.63919189 70.69047619 481.80509224 68 483 C66.45522858 484.00291183 64.92211288 485.02421949 63.40625 486.0703125 C-7.43771573 530.69398429 -90.90375069 549.24890502 -239 539 C-261.92931334 533.64305147 -283.79826584 526.23461439 -305 516 C-305.83611816 515.5982959 -306.67223633 515.1965918 -307.53369141 514.78271484 C-331.86023376 502.94805475 -353.84217905 487.3825291 -373.72265625 469.08984375 C-375.25280764 467.68567395 -376.80288035 466.30293584 -378.37109375 464.94140625 C-390.30271245 454.53703475 -400.52838149 442.64554211 -410 430 C-410.41314453 429.4544043 -410.82628906 428.90880859 -411.25195312 428.34667969 C-458.35077731 365.83437342 -471.64497028 285.32184056 -461 209 C-454.10933642 162.95225101 -436.6484911 118.21118693 -407 82 C-406.56864746 81.47245117 -406.13729492 80.94490234 -405.69287109 80.40136719 C-390.59118763 62.01910627 -374.15611598 45.18503308 -355 31 C-354.35869141 30.52353027 -353.71738281 30.04706055 -353.05664062 29.55615234 C-307.9439095 -3.70845868 -255.56603644 -22.70875403 -200 -29 C-198.62376465 -29.15662109 -198.62376465 -29.15662109 -197.21972656 -29.31640625 C-131.4868165 -36.3887929 -59.80890585 -29.29152455 0 0 Z " fill="#00FE00" transform="translate(464,31)"/>
<path d="M0 0 C14.3784019 -0.09379403 28.75675578 -0.16388319 43.13540173 -0.20724869 C49.81295501 -0.22779977 56.49028917 -0.25628361 63.16772461 -0.30175781 C69.61924057 -0.34541544 76.07055872 -0.36917927 82.52221107 -0.37950897 C84.97602766 -0.38686464 87.42983418 -0.401228 89.8835659 -0.42292023 C114.55375288 -0.63222155 114.55375288 -0.63222155 125 4 C126.15757812 4.50660156 127.31515625 5.01320313 128.5078125 5.53515625 C142.49058073 13.69524935 152.52525335 25.10466224 157.16541672 40.73583794 C159.33883053 50.29111125 158.5489911 60.53407595 158.51416016 70.26586914 C158.51962709 72.82331259 158.52687207 75.38075276 158.53575134 77.93818665 C158.55104823 83.42898322 158.55441617 88.9195781 158.54698563 94.41038704 C158.53640126 102.37938834 158.54994766 110.34821395 158.56945018 118.31719189 C158.60073474 131.28999376 158.61578894 144.26275826 158.61914062 157.2355957 C158.61934461 158.01042179 158.6195486 158.78524788 158.61975877 159.58355355 C158.61996214 160.35922745 158.62016551 161.13490136 158.62037504 161.93408054 C158.62328558 172.89233873 158.63007295 183.85058522 158.64160156 194.80883789 C158.64240686 195.57815803 158.64321215 196.34747817 158.64404185 197.14011104 C158.65788315 210.04993239 158.67973835 222.95973358 158.7054714 235.86953634 C158.72076772 243.79875193 158.72816263 251.72790065 158.72467647 259.65713071 C158.72236078 265.76504513 158.72986071 271.87291308 158.74055672 277.98081779 C158.7432019 280.45724233 158.74255342 282.93367337 158.73804665 285.41009521 C158.66436694 328.96955724 160.31962743 377.15866047 192.296875 410.38671875 C198.77836095 416.62461944 206.05408076 420.93796057 214 425 C214.94359375 425.4846875 215.8871875 425.969375 216.859375 426.46875 C243.4429669 438.78431235 278.15375764 437.55354346 305.234375 427.83984375 C327.79689795 418.93509167 343.44714339 403.10531847 353.109375 381.12988281 C357.12211658 371.53362251 360.03702103 361.65546589 362.25 351.5 C362.40114258 350.81446045 362.55228516 350.1289209 362.70800781 349.42260742 C366.37694901 331.26217668 366.30944776 312.9602879 366.31667423 294.51889014 C366.3204117 290.55595773 366.33558796 286.59306569 366.34928894 282.63015747 C366.37143082 275.7845694 366.38652216 268.93899595 366.39665604 262.09337997 C366.41131789 252.19609576 366.43687509 242.29886255 366.46498732 232.40160848 C366.51031989 216.33920439 366.54699025 200.2767929 366.578125 184.21435547 C366.60836625 168.6225454 366.6427419 153.03075337 366.68261719 137.43896484 C366.68507874 136.4759073 366.68754028 135.51284975 366.69007643 134.52060865 C366.70245211 129.68864081 366.71490843 124.85667318 366.72740483 120.02470565 C366.83076968 80.01649548 366.92003944 40.00826339 367 0 C381.00454883 -0.07032543 395.00906996 -0.12290282 409.01375961 -0.15543652 C415.5175364 -0.1710554 422.02119408 -0.19222465 428.52490234 -0.22631836 C434.80782483 -0.25904648 441.09063315 -0.2768814 447.37363434 -0.28463173 C449.76406907 -0.29015112 452.15449794 -0.30092886 454.54488373 -0.31719017 C457.90733577 -0.33914307 461.26932314 -0.34195946 464.63183594 -0.34057617 C465.60792313 -0.351362 466.58401031 -0.36214783 467.5896759 -0.3732605 C483.6331542 -0.30239456 496.83315235 5.65841113 508.1953125 16.87109375 C521.5655026 31.06273817 523.1653111 48.73353668 523.11352539 67.33227539 C523.11324284 68.76215615 523.11340257 70.19203705 523.1139679 71.62191772 C523.11425324 75.47871269 523.10839917 79.33547616 523.10139394 83.19226384 C523.09511647 87.23213237 523.09455314 91.27200173 523.09336853 95.31187439 C523.09026812 102.95080573 523.08207221 110.58972264 523.07201904 118.22864765 C523.06081773 126.93001892 523.05533735 135.63139091 523.05032361 144.33276761 C523.03988845 162.22185322 523.02231412 180.11092545 523 198 C522.32730072 198.3630423 521.65460144 198.72608459 520.96151733 199.10012817 C517.85657072 200.77660562 514.75250087 202.45470031 511.6484375 204.1328125 C510.06180298 204.98903198 510.06180298 204.98903198 508.44311523 205.86254883 C499.1690296 210.87874332 490.00409775 216.06885837 480.875 221.34326172 C478.22919844 222.86792284 475.57913637 224.38492291 472.92715454 225.89880371 C470.56978706 227.24508158 468.2142901 228.59461111 465.85906982 229.94464111 C464.17113369 230.9110857 462.4813437 231.8742902 460.79150391 232.83740234 C455.31236745 235.98564013 450.05501302 239.2051398 445 243 C447.53353816 244.68902544 449.84142372 245.92118685 452.59375 247.1796875 C453.52807861 247.60781738 454.46240723 248.03594727 455.42504883 248.47705078 C456.43978271 248.93837402 457.4545166 249.39969727 458.5 249.875 C459.55791748 250.3582373 460.61583496 250.84147461 461.70581055 251.33935547 C469.71763049 254.98860493 477.76111582 258.56409705 485.8125 262.125 C493.87141047 265.69170962 501.9061408 269.29831525 509.875 273.0625 C510.63530518 273.42037598 511.39561035 273.77825195 512.17895508 274.14697266 C512.88044678 274.48132324 513.58193848 274.81567383 514.3046875 275.16015625 C514.90265137 275.44511963 515.50061523 275.73008301 516.11669922 276.02368164 C516.73818848 276.3458667 517.35967773 276.66805176 518 277 C518.89041992 277.38567139 519.78083984 277.77134277 520.69824219 278.16870117 C523 280 523 280 523.58349609 283.18847656 C523.56367676 284.49268555 523.54385742 285.79689453 523.5234375 287.140625 C523.51918762 287.85103439 523.51493774 288.56144379 523.51055908 289.29338074 C523.49008239 291.61331074 523.43334957 293.93073854 523.375 296.25 C523.35162465 297.85161959 523.32998633 299.45326544 523.31005859 301.05493164 C523.24305248 305.70443123 523.1268018 310.35180463 523 315 C522.97099609 316.18126465 522.94199219 317.3625293 522.91210938 318.57958984 C522.76234698 324.19829189 522.52248663 329.80294337 522.16210938 335.41210938 C522.05163689 337.17567619 521.95452134 338.94011857 521.86914062 340.70507812 C521.29870265 352.20477697 520.03271148 360.50583951 513 370 C512.23030653 371.12352569 511.46486214 372.24997111 510.703125 373.37890625 C496.97400581 393.46651267 479.62913676 412.78514027 460.57421875 427.92578125 C458.17745505 429.8570127 455.89797717 431.86325307 453.625 433.9375 C448.01286185 438.96668718 442.02308988 443.48193083 436 448 C435.28489258 448.53963379 434.56978516 449.07926758 433.83300781 449.63525391 C407.22199453 469.68131096 378.74924191 486.0430168 349 501 C348.14003418 501.43731445 347.28006836 501.87462891 346.39404297 502.32519531 C330.12019764 510.56318747 313.13930385 517.20876448 296.2462616 524.04818726 C291.107399 526.13233841 285.98563572 528.25243372 280.87890625 530.4140625 C260.19601394 539.15845527 239.38786501 546.16722188 217.76245117 552.19433594 C210.6307058 554.19345034 203.71555667 556.37090645 196.859375 559.1875 C189.30956756 561.33280047 182.32813935 559.4103128 174.9375 557.5 C173.89110352 557.23227783 172.84470703 556.96455566 171.76660156 556.6887207 C140.14317653 548.36539349 109.22032435 535.16939143 84 514 C83.42314453 513.52175781 82.84628906 513.04351563 82.25195312 512.55078125 C71.04597108 503.24634792 60.97039531 493.52703186 52 482 C51.36989014 481.20045898 51.36989014 481.20045898 50.72705078 480.38476562 C42.28497479 469.60445057 35.46895506 458.05038657 29 446 C28.4416748 444.9776123 28.4416748 444.9776123 27.87207031 443.93457031 C6.75166376 404.70518359 -0.22446559 356.73862172 -0.12025452 312.78199768 C-0.12069202 311.42024193 -0.12157021 310.05848626 -0.12284368 308.69673103 C-0.12505343 305.00229557 -0.12111633 301.30788973 -0.11606562 297.61345804 C-0.11171005 293.61163936 -0.11321114 289.60982209 -0.1139679 285.60800171 C-0.11448992 278.69032464 -0.11137687 271.77265706 -0.10573006 264.85498238 C-0.09757127 254.85342942 -0.09499536 244.85188102 -0.09374207 234.8503251 C-0.0915584 218.61985932 -0.08491696 202.38939859 -0.07543945 186.15893555 C-0.06624756 170.4011233 -0.05917543 154.64331243 -0.05493164 138.88549805 C-0.05466892 137.91269135 -0.05440619 136.93988464 -0.05413551 135.93759895 C-0.05283038 131.05686718 -0.0515667 126.17613539 -0.05032361 121.2954036 C-0.03997235 80.86359889 -0.02237276 40.43179973 0 0 Z " fill="#00FE00" transform="translate(572,30)"/>
<path d="M0 0 C69.05623212 -0.12099405 69.05623212 -0.12099405 98.06640625 -0.14648438 C104.70459007 -0.15235645 111.34277368 -0.15841746 117.98095703 -0.16479492 C119.22864103 -0.16598179 119.22864103 -0.16598179 120.50153077 -0.16719264 C133.86468485 -0.18017897 147.22779951 -0.20379575 160.59093036 -0.23145839 C174.34332368 -0.2596857 188.09569662 -0.27621251 201.84811771 -0.28226548 C210.30853688 -0.28634636 218.76884463 -0.29915105 227.22922944 -0.3237494 C233.06033159 -0.33982155 238.89137762 -0.34435289 244.72250022 -0.34050413 C248.06802526 -0.33861521 251.41320583 -0.34287645 254.7587204 -0.35761642 C326.72815244 -0.65869737 397.8434595 17.19803543 450.1875 68.875 C477.49669477 96.37417738 493.22221549 131.95852441 499 170 C499.11714355 170.7415332 499.23428711 171.48306641 499.35498047 172.24707031 C507.15287964 223.66917508 497.18826039 279.70170796 466.5012207 322.20068359 C461.90129124 328.34838572 456.85456528 334.01242792 451.47802734 339.48681641 C450.02292143 340.97653336 448.59799207 342.49064031 447.17578125 344.01171875 C424.99235823 367.38816778 395.22237105 383.62979226 365 394 C363.67887207 394.45802002 363.67887207 394.45802002 362.33105469 394.92529297 C335.53107733 404.06187061 305.46653077 410 277 410 C276.87799225 409.28566299 276.7559845 408.57132599 276.63027954 407.83534241 C273.66500457 390.5845608 270.27151801 373.50161957 266.375 356.4375 C265.82124509 353.99001082 265.26795855 351.54241564 264.71508789 349.09472656 C259.05659922 324.08836265 253.30769534 299.1022316 247.56941986 274.11408043 C243.11628541 254.71930025 238.71406917 235.31635105 234.45016479 215.87893677 C229.14376624 191.69172315 223.37745429 167.62853382 217.51441956 143.57200623 C217.05288734 141.67817955 217.05288734 141.67817955 216.58203125 139.74609375 C216.27760605 138.49703751 215.97318085 137.24798126 215.65953064 135.96107483 C212.96261816 124.879585 210.31423654 113.78718702 207.71881104 102.68148804 C207.28584295 100.83004919 206.85126667 98.97898559 206.41497803 97.12832642 C205.82547106 94.62565289 205.24180249 92.12169788 204.66015625 89.6171875 C204.40355476 88.53287193 204.40355476 88.53287193 204.14176941 87.426651 C203.38933101 84.15325684 203 81.38644583 203 78 C191.88260837 83.44003728 180.90179012 89.07302256 170.06005859 95.04394531 C161.75040036 99.61303681 153.38057271 104.06293084 145 108.5 C134.05245656 114.2995268 123.14041319 120.15657423 112.27734375 126.11328125 C108.569004 128.14621248 104.8520825 130.16233823 101.12890625 132.16796875 C90.11215208 138.10390018 79.16779003 144.14300924 68.29321289 150.33569336 C61.66673168 154.09519326 54.96844581 157.68183024 48.20629883 161.18994141 C41.84805479 164.50769279 35.6066467 168.01348248 29.375 171.5625 C22.33785857 175.56935256 15.28126765 179.52175801 8.125 183.3125 C7.41134277 183.69156494 6.69768555 184.07062988 5.96240234 184.46118164 C1.13098333 187 1.13098333 187 0 187 C0 125.29 0 63.58 0 0 Z " fill="#00FE00" transform="translate(1113,30)"/>
<path d="M0 0 C3.23302417 1.39420156 6.45366024 2.81564695 9.67242432 4.24240112 C11.08034456 4.86293175 12.48830426 5.48337283 13.89630127 6.10372925 C31.40011109 13.83318999 48.75580757 21.87403351 66.01217651 30.14035034 C67.26212755 30.73877725 68.51273386 31.33583787 69.7640686 31.93136597 C84.65266334 39.02713781 84.65266334 39.02713781 91.42242432 43.67990112 C91.42242432 44.00990112 91.42242432 44.33990112 91.42242432 44.67990112 C52.48242432 44.67990112 13.54242432 44.67990112 -26.57757568 44.67990112 C-26.45902893 76.06230361 -26.45902893 76.06230361 -26.30731201 107.44454956 C-26.29376221 113.5475769 -26.29376221 113.5475769 -26.29124451 116.41482544 C-26.28667161 118.39515207 -26.27619147 120.37547093 -26.260849 122.35574341 C-26.11353629 142.39066768 -28.38933989 159.15918503 -42.94085693 174.32833862 C-57.60079088 187.40282786 -73.83190503 190.86880952 -93.07611084 190.79342651 C-94.0724353 190.79357254 -95.06875977 190.79371857 -96.09527588 190.79386902 C-99.35241965 190.79317847 -102.60950453 190.78542668 -105.86663818 190.77755737 C-108.1392107 190.77569014 -110.41178362 190.77426768 -112.68435669 190.77326965 C-118.63876474 190.76946852 -124.59314805 190.75965896 -130.54754639 190.74856567 C-136.63437566 190.73829966 -142.72120898 190.73376095 -148.80804443 190.72872925 C-160.73123409 190.71803436 -172.65439895 190.70045723 -184.57757568 190.67990112 C-184.57757568 183.74990112 -184.57757568 176.81990112 -184.57757568 169.67990112 C-180.64851318 167.54521362 -180.64851318 167.54521362 -176.64007568 165.36740112 C-156.15508506 154.04802538 -136.57295721 140.82257319 -119.57757568 124.67990112 C-118.31237278 123.58999742 -117.04179162 122.50629552 -115.76507568 121.42990112 C-105.77921235 112.71795451 -96.71932862 103.12510374 -88.57757568 92.67990112 C-87.72261345 91.62504726 -86.86575364 90.5717293 -86.00726318 89.51974487 C-66.35113196 65.25632116 -51.92023655 37.99201454 -40.62054443 8.96261597 C-38.34717331 3.20305167 -36.19174277 -2.07938424 -31.39007568 -6.19509888 C-20.84736536 -10.412183 -9.73059164 -4.1322543 0 0 Z " fill="#00FE00" transform="translate(1297.5775756835938,395.3200988769531)"/>
<path d="M0 0 C0.66 0 1.32 0 2 0 C2.20753906 1.13695312 2.41507813 2.27390625 2.62890625 3.4453125 C5.60094305 18.72271193 11.20359341 30.7415791 21 43 C21.41266113 43.51949219 21.82532227 44.03898438 22.25048828 44.57421875 C31.76392405 56.46336594 42.57063089 66.1757513 55 75 C55.85851562 75.61125732 55.85851562 75.61125732 56.734375 76.23486328 C66.06248594 82.82284164 75.69687948 88.10290759 86 93 C88.00225224 93.99548279 90.00308638 94.99385092 92 96 C92 96.66 92 97.32 92 98 C5.32603646 98.19572743 5.32603646 98.19572743 -24.3125 97.5625 C-25.29782715 97.54285187 -26.2831543 97.52320374 -27.29833984 97.50296021 C-29.98686138 97.44734962 -32.67504015 97.38411444 -35.36328125 97.31640625 C-36.12671341 97.29968872 -36.89014557 97.28297119 -37.67671204 97.26574707 C-42.7655109 97.11724455 -42.7655109 97.11724455 -45 96 C-45 95.34 -45 94.68 -45 94 C-43.53125 92.58984375 -43.53125 92.58984375 -41.5 90.9375 C-15.72500966 68.78005217 -3.52453701 32.82854473 0 0 Z " fill="#000000" transform="translate(561,474)"/>
<path d="M0 0 C1.16402344 0.89332031 1.16402344 0.89332031 2.3515625 1.8046875 C2.3515625 2.4646875 2.3515625 3.1246875 2.3515625 3.8046875 C2.9703125 4.0728125 3.5890625 4.3409375 4.2265625 4.6171875 C6.3515625 5.8046875 6.3515625 5.8046875 8.3515625 8.8046875 C6.0415625 11.1146875 3.7315625 13.4246875 1.3515625 15.8046875 C-1.89117837 14.18331706 -4.19798575 12.6667246 -7.0234375 10.4921875 C-18.20320622 2.69083064 -30.2593736 0.08275219 -43.6484375 1.8046875 C-47.5982342 2.69934025 -51.03988989 3.97946856 -54.6484375 5.8046875 C-55.37417969 6.16691406 -56.09992188 6.52914062 -56.84765625 6.90234375 C-65.14362199 11.56388641 -70.39746567 18.57263049 -73.765625 27.39453125 C-76.67266836 38.62395094 -75.18793178 49.72751836 -69.515625 59.8203125 C-64.00859623 68.20850201 -55.49117709 73.96534385 -45.84375 76.55859375 C-34.53719805 78.79798008 -23.10442791 78.54502671 -13.0859375 72.1796875 C-12.48652344 71.75429688 -11.88710937 71.32890625 -11.26953125 70.890625 C-9.6484375 69.8046875 -9.6484375 69.8046875 -6.6484375 68.8046875 C-5.52795808 66.97078928 -5.52795808 66.97078928 -4.6484375 64.8046875 C-4.13603516 63.8146875 -4.13603516 63.8146875 -3.61328125 62.8046875 C-3.10474609 61.8146875 -3.10474609 61.8146875 -2.5859375 60.8046875 C-2.07353516 59.8146875 -2.07353516 59.8146875 -1.55078125 58.8046875 C-0.45452366 56.53307483 -0.45452366 56.53307483 0.3515625 52.8046875 C-9.2184375 52.4746875 -18.7884375 52.1446875 -28.6484375 51.8046875 C-28.6484375 47.8446875 -28.6484375 43.8846875 -28.6484375 39.8046875 C-14.7884375 39.8046875 -0.9284375 39.8046875 13.3515625 39.8046875 C16.03283182 50.52976479 11.14401434 61.62566496 6.18359375 71.015625 C3.20183475 75.65799439 -0.84547782 78.60569934 -5.3984375 81.6171875 C-5.95845459 81.99061279 -6.51847168 82.36403809 -7.09545898 82.7487793 C-15.52077174 88.00192901 -24.16260845 89.34640758 -33.9609375 89.2421875 C-34.9705957 89.23388916 -35.98025391 89.22559082 -37.02050781 89.21704102 C-50.94164334 88.90268558 -62.01447904 84.60886787 -72.5234375 75.2421875 C-73.2246875 74.4378125 -73.9259375 73.6334375 -74.6484375 72.8046875 C-75.4528125 71.9590625 -76.2571875 71.1134375 -77.0859375 70.2421875 C-86.36676355 58.87611256 -88.79621959 46.06587999 -87.6484375 31.8046875 C-84.8510201 17.53150101 -77.53232604 6.1128446 -65.73828125 -2.26171875 C-45.05065292 -15.20783256 -20.01079528 -12.65599224 0 0 Z " fill="#000000" transform="translate(1269.6484375,643.1953125)"/>
<path d="M0 0 C11.84747544 7.58238428 19.65871167 19.46933592 22.6875 33.1875 C24.10880219 49.30996784 21.49441011 63.25631006 11.1328125 76.1171875 C3.48589942 84.3495102 -7.99475017 91.63015653 -19.42675781 92.31396484 C-35.79977631 92.83750128 -48.33473408 91.09119374 -61.3125 80.1875 C-61.3125 79.5275 -61.3125 78.8675 -61.3125 78.1875 C-62.3025 77.8575 -63.2925 77.5275 -64.3125 77.1875 C-74.78070431 65.35495627 -78.22365619 51.59432279 -77.3125 36.1875 C-75.04543095 22.44227823 -67.69840164 9.60349351 -56.4375 1.3125 C-39.15173968 -9.99793576 -17.85321178 -9.95403288 0 0 Z M-54.3125 14.1875 C-54.3125 14.8475 -54.3125 15.5075 -54.3125 16.1875 C-54.90675781 16.39632812 -55.50101563 16.60515625 -56.11328125 16.8203125 C-59.1512888 18.70894952 -59.97499408 20.85567521 -61.5 24.0625 C-62.26376953 25.63644531 -62.26376953 25.63644531 -63.04296875 27.2421875 C-66.82609674 36.01904443 -67.07377375 48.8199058 -63.6875 57.8125 C-58.65638626 68.08656386 -50.97467682 75.9006454 -40.3125 80.1875 C-31.25246781 82.76864509 -18.98103611 82.64589931 -10.4765625 78.4375 C-9.76242187 78.025 -9.04828125 77.6125 -8.3125 77.1875 C-7.53648437 76.775 -6.76046875 76.3625 -5.9609375 75.9375 C2.75043999 70.80973265 7.82580295 62.72649016 10.6875 53.1875 C13.12537632 42.77111937 11.92515095 31.26656026 6.5 21.9375 C-0.06097303 12.57302514 -7.53912589 7.7786247 -18.3125 4.1875 C-31.69795401 3.30763718 -44.25852896 4.10472102 -54.3125 14.1875 Z " fill="#000000" transform="translate(770.3125,639.8125)"/>
<path d="M0 0 C44.47865854 0 44.47865854 0 54.5625 4.5 C56.01849609 5.13421875 56.01849609 5.13421875 57.50390625 5.78125 C60 7 60 7 63 9 C63 9.66 63 10.32 63 11 C63.88365234 11.37511719 63.88365234 11.37511719 64.78515625 11.7578125 C72.56538007 16.12132427 76.28732655 25.9740736 79 34 C82.50061247 47.1105741 80.61593508 62.39757553 74.28125 74.203125 C69.70543362 81.76485546 69.70543362 81.76485546 66 83 C66 83.66 66 84.32 66 85 C47.79851419 100.4475967 21.89614599 95 0 95 C0 63.65 0 32.3 0 0 Z M11 11 C11 35.09 11 59.18 11 84 C35.53186811 85.47279443 35.53186811 85.47279443 58 77 C66.03886332 68.43559356 69.37181145 58.37551302 69.21484375 46.77734375 C68.56891517 38.4272489 66.2191627 29.69898627 61 23 C60.01 22.67 59.02 22.34 58 22 C57.505 20.515 57.505 20.515 57 19 C42.78152354 9.36575647 27.87701083 11 11 11 Z " fill="#000000" transform="translate(112,635)"/>
<path d="M0 0 C5.74498988 1.14899798 7.30412642 3.12189218 10.75 7.4375 C11.81270713 8.72486299 12.87651675 10.01131665 13.94140625 11.296875 C14.46105957 11.93044922 14.98071289 12.56402344 15.51611328 13.21679688 C17.50377127 15.60538752 19.58662703 17.89832383 21.6875 20.1875 C24.69814479 23.5008308 27.56565178 26.88941929 30.375 30.375 C33.61950975 34.38824377 36.98728819 38.22433696 40.5 42 C44.74478533 46.56297851 48.75371313 51.25767161 52.63671875 56.13671875 C55.97912164 60.18627465 59.5115799 64.07552739 63 68 C63.33 45.56 63.66 23.12 64 0 C67.63 0 71.26 0 75 0 C75 31.35 75 62.7 75 95 C73.68 95 72.36 95 71 95 C68.95703125 92.9453125 68.95703125 92.9453125 66.8125 90.125 C63.81779819 86.29217379 60.78965135 82.5834731 57.5 79 C54.44245809 75.64673728 51.52912249 72.225448 48.6875 68.6875 C44.79808842 63.8749471 40.6725675 59.3540148 36.4465332 54.84106445 C33.28892585 51.45004468 30.28514039 47.98439674 27.375 44.375 C22.78997574 38.7419702 17.88572916 33.37430208 13 28 C12.67 50.11 12.34 72.22 12 95 C8.04 95 4.08 95 0 95 C0 63.65 0 32.3 0 0 Z " fill="#000000" transform="translate(1369,635)"/>
<path d="M0 0 C0.88171875 -0.01611328 1.7634375 -0.03222656 2.671875 -0.04882812 C14.3244787 -0.05737109 27.10059496 4.07224179 35.625 12.3125 C35.625 12.9725 35.625 13.6325 35.625 14.3125 C36.285 14.3125 36.945 14.3125 37.625 14.3125 C39.8125 16.625 39.8125 16.625 41.625 19.3125 C40.48780581 22.72408256 39.58157056 23.43104601 36.625 25.3125 C35.965 25.3125 35.305 25.3125 34.625 25.3125 C34.625 25.9725 34.625 26.6325 34.625 27.3125 C33.965 27.3125 33.305 27.3125 32.625 27.3125 C31.55890757 26.12237466 30.54667003 24.88371392 29.5625 23.625 C23.89281596 16.96518402 16.32540281 13.02836851 7.5546875 12.09130859 C-5.44159527 11.40220064 -16.83024131 13.02330467 -27.375 21.3125 C-27.705 21.9725 -28.035 22.6325 -28.375 23.3125 C-29.035 23.3125 -29.695 23.3125 -30.375 23.3125 C-30.808125 24.18455078 -30.808125 24.18455078 -31.25 25.07421875 C-31.94564941 26.45827122 -32.65191019 27.83711502 -33.375 29.20703125 C-33.705 29.83996094 -34.035 30.47289062 -34.375 31.125 C-34.705 31.75019531 -35.035 32.37539063 -35.375 33.01953125 C-39.69863445 42.93348992 -40.04439283 54.82663791 -36.4140625 65.0390625 C-31.38741861 76.03720816 -24.38900704 82.01508682 -13.234375 86.34375 C-2.37578072 90.02261801 9.52284381 88.91846825 19.8125 84.0625 C24.62180484 81.50613449 30.11551819 78.33146361 32.625 73.3125 C33.285 73.3125 33.945 73.3125 34.625 73.3125 C34.625 73.9725 34.625 74.6325 34.625 75.3125 C35.223125 75.60125 35.82125 75.89 36.4375 76.1875 C38.625 77.3125 38.625 77.3125 41.625 79.3125 C38.51933565 86.71573233 31.06497466 91.9392169 24 95.25 C15.6142935 98.65595922 8.69379009 99.61257026 -0.375 99.3125 C-0.375 100.6325 -0.375 101.9525 -0.375 103.3125 C0.3675 103.23 1.11 103.1475 1.875 103.0625 C4.625 103.3125 4.625 103.3125 6.9375 104.875 C9.27744061 108.25491422 9.19114687 110.27870353 8.625 114.3125 C6.43856242 117.82641753 4.48238448 119.86274476 0.625 121.3125 C-2.90625 121.54296875 -2.90625 121.54296875 -6.875 121.5 C-8.83953125 121.49033203 -8.83953125 121.49033203 -10.84375 121.48046875 C-13.58019436 121.35030602 -15.78965687 121.13690789 -18.375 120.3125 C-17.715 118.0025 -17.055 115.6925 -16.375 113.3125 C-11.425 113.3125 -6.475 113.3125 -1.375 113.3125 C-0.88 111.8275 -0.88 111.8275 -0.375 110.3125 C-3.015 110.3125 -5.655 110.3125 -8.375 110.3125 C-8.51785714 102.88392857 -8.51785714 102.88392857 -7.375 99.3125 C-8.48875 99.23 -9.6025 99.1475 -10.75 99.0625 C-22.62677396 97.53339154 -33.88924688 90.55757758 -41.375 81.3125 C-50.45862616 68.49742575 -53.08799727 54.67385869 -50.94140625 39.18359375 C-49.32917004 31.50294051 -46.0780949 24.60823385 -41.375 18.3125 C-40.385 17.9825 -39.395 17.6525 -38.375 17.3125 C-37.6918569 15.98753293 -37.02681162 14.65315799 -36.375 13.3125 C-26.27377044 3.632155 -13.63727104 -0.0494104 0 0 Z " fill="#000000" transform="translate(542.375,632.6875)"/>
<path d="M0 0 C1.32 0 2.64 0 4 0 C5.82421875 1.8359375 5.82421875 1.8359375 7.6875 4.375 C10.47505389 8.04527929 13.32006428 11.5421111 16.4375 14.9375 C19.53595359 18.3325577 22.49305437 21.79440088 25.375 25.375 C29.05636689 29.92860712 32.92774473 34.23582516 36.91357422 38.51904297 C40.68538542 42.5962853 44.18025858 46.85807939 47.66015625 51.1875 C50.76833184 54.92353744 54.04799535 58.48435676 57.37109375 62.02929688 C59.47200591 64.27983796 61.28590221 66.42885331 63 69 C63.33 46.23 63.66 23.46 64 0 C67.63 0 71.26 0 75 0 C75 31.35 75 62.7 75 95 C69.27302412 93.85460482 67.74156457 91.92636555 64.3125 87.625 C63.25150403 86.33860177 62.18898346 85.05345961 61.125 83.76953125 C60.33609375 82.80974365 60.33609375 82.80974365 59.53125 81.83056641 C57.36986923 79.24669635 55.10168283 76.78410209 52.8125 74.3125 C49.60354956 70.81740111 46.53934163 67.2571616 43.5625 63.5625 C40.34056252 59.56775211 36.99338154 55.75452374 33.5 52 C29.22476056 47.40383903 25.18521605 42.67282954 21.265625 37.765625 C18.26522532 34.10306815 15.11777565 30.56317217 12 27 C11.67 49.44 11.34 71.88 11 95 C7.37 95 3.74 95 0 95 C0 63.65 0 32.3 0 0 Z " fill="#000000" transform="translate(876,635)"/>
<path d="M0 0 C18.48 0 36.96 0 56 0 C56 3.63 56 7.26 56 11 C41.48 11 26.96 11 12 11 C12 19.91 12 28.82 12 38 C26.19 38 40.38 38 55 38 C55 41.63 55 45.26 55 49 C40.81 49 26.62 49 12 49 C12 60.55 12 72.1 12 84 C26.19 84 40.38 84 55 84 C55 87.63 55 91.26 55 95 C36.85 95 18.7 95 0 95 C0 63.65 0 32.3 0 0 Z " fill="#000000" transform="translate(1299,635)"/>
<path d="M0 0 C3.66733297 2.90937862 6.62879475 6.2329353 9.45703125 9.94921875 C7.76046699 13.6879437 5.84435396 15.57809285 2.45703125 17.94921875 C1.79703125 17.94921875 1.13703125 17.94921875 0.45703125 17.94921875 C-0.54023037 16.77280833 -1.49041742 15.55633918 -2.41796875 14.32421875 C-7.50446541 8.29538165 -14.85552553 4.59678666 -22.54296875 2.94921875 C-35.76086585 2.15011893 -46.54689443 2.90331071 -57.54296875 10.94921875 C-58.28546875 11.27921875 -59.02796875 11.60921875 -59.79296875 11.94921875 C-62.10663317 13.2713127 -62.41074987 14.53763342 -63.54296875 16.94921875 C-64.27193359 18.33753906 -64.27193359 18.33753906 -65.015625 19.75390625 C-65.54027344 20.76710938 -66.06492187 21.7803125 -66.60546875 22.82421875 C-67.13269531 23.83226562 -67.65992188 24.8403125 -68.203125 25.87890625 C-72.55090512 35.84204088 -71.14893691 47.02616489 -67.7421875 57.03125 C-63.92295974 66.32428953 -57.03500864 71.66075371 -48.1875 75.87890625 C-37.0653104 80.38035374 -25.75106289 79.84578273 -14.54296875 75.94921875 C-8.2488303 72.98572856 -3.58799793 69.6122596 0.45703125 63.94921875 C3.89298291 65.47630838 6.57615579 67.5484892 9.45703125 69.94921875 C6.48816193 77.12670501 -1.33020678 83.11908599 -8.37939453 86.10107422 C-16.36137206 89.23009588 -23.47156823 90.4269386 -32.04296875 90.32421875 C-33.01105469 90.33582031 -33.97914063 90.34742188 -34.9765625 90.359375 C-48.8264465 90.30360366 -60.07538135 85.08437094 -70.11328125 75.65625 C-79.61875363 65.06574781 -84.28675113 51.77364079 -83.75390625 37.55078125 C-82.60031383 23.32314136 -76.752707 11.9275571 -66.3671875 2.29296875 C-47.57133163 -13.30525189 -20.09602212 -13.56407936 0 0 Z " fill="#000000" transform="translate(372.54296875,642.05078125)"/>
<path d="M0 0 C18.48 0 36.96 0 56 0 C56 3.63 56 7.26 56 11 C41.15 11 26.3 11 11 11 C11 19.91 11 28.82 11 38 C25.52 38 40.04 38 55 38 C55 41.63 55 45.26 55 49 C40.48 49 25.96 49 11 49 C11 60.55 11 72.1 11 84 C25.52 84 40.04 84 55 84 C55 87.63 55 91.26 55 95 C36.85 95 18.7 95 0 95 C0 63.65 0 32.3 0 0 Z " fill="#000000" transform="translate(42,635)"/>
<path d="M0 0 C18.15 0 36.3 0 55 0 C55 3.63 55 7.26 55 11 C40.48 11 25.96 11 11 11 C11 19.91 11 28.82 11 38 C25.52 38 40.04 38 55 38 C55 41.63 55 45.26 55 49 C40.48 49 25.96 49 11 49 C11 60.55 11 72.1 11 84 C25.52 84 40.04 84 55 84 C55 87.63 55 91.26 55 95 C36.85 95 18.7 95 0 95 C0 63.65 0 32.3 0 0 Z " fill="#000000" transform="translate(1521,635)"/>
<path d="M0 0 C18.15 0 36.3 0 55 0 C55 3.63 55 7.26 55 11 C40.48 11 25.96 11 11 11 C11 19.91 11 28.82 11 38 C25.52 38 40.04 38 55 38 C55 41.63 55 45.26 55 49 C40.48 49 25.96 49 11 49 C11 60.55 11 72.1 11 84 C25.52 84 40.04 84 55 84 C55 87.63 55 91.26 55 95 C36.85 95 18.7 95 0 95 C0 63.65 0 32.3 0 0 Z " fill="#000000" transform="translate(1027,635)"/>
<path d="M0 0 C1.32 0 2.64 0 4 0 C12.6087905 17.69682121 21.04890612 35.45770697 29.29980469 53.32470703 C32.08389141 59.34792846 34.88769926 65.36198124 37.69262695 71.3755188 C38.60249191 73.32673122 39.51123658 75.2784626 40.41992188 77.23022461 C40.97486328 78.42010986 41.52980469 79.60999512 42.1015625 80.8359375 C42.83366943 82.40674072 42.83366943 82.40674072 43.58056641 84.00927734 C44.57784527 86.1105271 45.61517513 88.19300736 46.68115234 90.26025391 C48 93 48 93 48 95 C44.04 95 40.08 95 36 95 C22 67.31979695 22 67.31979695 22 64 C8.8 64 -4.4 64 -18 64 C-18.66 65.98 -19.32 67.96 -20 70 C-20.907616 72.03304649 -21.84948159 74.05105775 -22.8203125 76.0546875 C-23.62275391 77.71757813 -23.62275391 77.71757813 -24.44140625 79.4140625 C-24.99699219 80.55617188 -25.55257812 81.69828125 -26.125 82.875 C-26.96998047 84.62296875 -26.96998047 84.62296875 -27.83203125 86.40625 C-29.21812001 89.27239964 -30.60862785 92.13641145 -32 95 C-35.96 95 -39.92 95 -44 95 C-41.77725466 87.51243085 -38.55987102 80.65884202 -35.1071167 73.67492676 C-33.4077528 70.23606732 -31.72774007 66.78777338 -30.046875 63.33984375 C-29.7046994 62.63876495 -29.3625238 61.93768616 -29.00997925 61.21536255 C-25.70838691 54.43460121 -22.53002907 47.60023957 -19.375 40.75 C-13.07622097 27.08812159 -6.56739613 13.53439143 0 0 Z M1 24 C-0.85638226 27.80619129 -2.7076563 31.61481041 -4.55419922 35.42578125 C-5.18332711 36.72236283 -5.81385541 38.01826587 -6.44580078 39.31347656 C-7.35296172 41.17337011 -8.25508803 43.03563141 -9.15625 44.8984375 C-9.70087891 46.01911621 -10.24550781 47.13979492 -10.80664062 48.29443359 C-12.13452099 50.81214084 -12.13452099 50.81214084 -12 53 C-2.76 53 6.48 53 16 53 C14.61666902 48.85000706 13.27591057 45.26874514 11.3984375 41.3828125 C10.66367187 39.85527344 10.66367187 39.85527344 9.9140625 38.296875 C9.40617188 37.25015625 8.89828125 36.2034375 8.375 35.125 C7.859375 34.05507813 7.34375 32.98515625 6.8125 31.8828125 C5.54486479 29.25364318 4.2739434 26.62611698 3 24 C2.34 24 1.68 24 1 24 Z " fill="#000000" transform="translate(637,635)"/>
<path d="M0 0 C2.27929688 0.09057617 2.27929688 0.09057617 5 1 C6.45536249 3.21896184 7.48416374 5.14625533 8.53125 7.55078125 C8.84385773 8.22765488 9.15646545 8.9045285 9.47854614 9.60191345 C10.50326648 11.83120757 11.50136284 14.07141582 12.5 16.3125 C13.2109103 17.87094758 13.92365823 19.42855812 14.63818359 20.98535156 C16.08674727 24.1477365 17.52556653 27.31426192 18.95605469 30.48486328 C21.28313763 35.63726254 23.66573754 40.76253578 26.0559082 45.88598633 C27.62335154 49.24646583 29.18150423 52.61113036 30.73828125 55.9765625 C33.1143542 61.10453458 35.51145899 66.22221418 37.91796875 71.3359375 C38.89730367 73.42060647 39.87638227 75.50539564 40.85540771 77.59020996 C41.48948729 78.93827099 42.12492791 80.28569273 42.76177979 81.63244629 C43.64274391 83.49558252 44.51909094 85.36082592 45.39453125 87.2265625 C46.15020386 88.82878662 46.15020386 88.82878662 46.92114258 90.46337891 C48 93 48 93 48 95 C44.04 95 40.08 95 36 95 C34.00119778 90.90898649 32.00750698 86.81553794 30.01855469 82.71972656 C29.34092606 81.32613748 28.66189476 79.93322955 27.98144531 78.54101562 C27.00478259 76.54213157 26.03315656 74.54086863 25.0625 72.5390625 C24.75626709 71.91504547 24.45003418 71.29102844 24.13452148 70.64810181 C22 66.22774341 22 66.22774341 22 64 C8.8 64 -4.4 64 -18 64 C-18.99 66.97 -19.98 69.94 -21 73 C-21.77516485 74.8299373 -22.58488249 76.64607284 -23.4453125 78.4375 C-23.88230469 79.35144531 -24.31929688 80.26539063 -24.76953125 81.20703125 C-25.21683594 82.12871094 -25.66414063 83.05039062 -26.125 84 C-26.58003906 84.95261719 -27.03507812 85.90523437 -27.50390625 86.88671875 C-30.85278589 93.85278589 -30.85278589 93.85278589 -32 95 C-34.01964199 95.07244053 -36.04167124 95.08377188 -38.0625 95.0625 C-39.16722656 95.05347656 -40.27195312 95.04445313 -41.41015625 95.03515625 C-42.26480469 95.02355469 -43.11945313 95.01195312 -44 95 C-42.53535871 90.25678375 -40.60955083 85.83286324 -38.46484375 81.3671875 C-38.11412811 80.62961716 -37.76341248 79.89204681 -37.40206909 79.13212585 C-36.25032581 76.71158734 -35.09386681 74.29333262 -33.9375 71.875 C-33.13135964 70.18239832 -32.3256199 68.48960578 -31.52026367 66.79663086 C-29.85095648 63.28784588 -28.18027214 59.77972157 -26.50878906 56.27197266 C-22.95372198 48.80660676 -19.42240956 41.33003869 -15.89334106 33.85235596 C-14.84542144 31.63224695 -13.79670044 29.41251814 -12.74780273 27.19287109 C-8.47198388 18.14089728 -4.22542945 9.07560181 0 0 Z M2 23 C-6.969368 37.58422083 -6.969368 37.58422083 -12 53 C-2.76 53 6.48 53 16 53 C13.55520894 45.56394711 13.55520894 45.56394711 10.51953125 38.52734375 C10.07802734 37.60888672 9.63652344 36.69042969 9.18164062 35.74414062 C8.50391602 34.35485352 8.50391602 34.35485352 7.8125 32.9375 C7.34908203 31.97650391 6.88566406 31.01550781 6.40820312 30.02539062 C5.2769354 27.6812173 4.14080989 25.33954029 3 23 C2.67 23 2.34 23 2 23 Z " fill="#000000" transform="translate(435,635)"/>
<path d="M0 0 C3.63 0 7.26 0 11 0 C11.00586624 0.84001053 11.01173248 1.68002106 11.01777649 2.54548645 C11.07594002 10.50367609 11.14815007 18.46159211 11.23571491 26.41951466 C11.28023732 30.50971782 11.31953204 34.59982554 11.34643555 38.69018555 C11.37265117 42.64558859 11.41317874 46.60062063 11.46318626 50.55579185 C11.47973265 52.0566308 11.4913224 53.55753373 11.49761391 55.0584507 C11.53775969 63.76397934 12.12091911 71.70979709 15 80 C15.66 80 16.32 80 17 80 C17.45246094 80.45890625 17.90492188 80.9178125 18.37109375 81.390625 C21.84346236 84.82135849 26.79338518 85.9093172 31.56640625 86.10546875 C37.34134951 85.72635034 41.38171568 84.50989608 46 81 C50.00457885 75.64021306 51.12384429 70.71828235 51.20532227 64.1418457 C51.21522186 63.44890411 51.22512146 62.75596252 51.23532104 62.04202271 C51.2668896 59.75331022 51.29167503 57.46457699 51.31640625 55.17578125 C51.33697979 53.58822594 51.35797637 52.00067606 51.37937927 50.41313171 C51.43455861 46.23583372 51.48398612 42.05848663 51.53222656 37.88110352 C51.5824718 33.61795688 51.63814209 29.3548815 51.69335938 25.09179688 C51.80089034 16.72792484 51.90234653 8.36399317 52 0 C55.96 0 59.92 0 64 0 C64.04546934 7.98966323 64.08204039 15.97922318 64.10362434 23.96898174 C64.11399175 27.68029842 64.12801946 31.39152078 64.15087891 35.1027832 C64.17286208 38.69490782 64.18462133 42.28694263 64.18975449 45.87912941 C64.19516258 47.89338268 64.21073301 49.90760062 64.22659302 51.92179871 C64.22820534 65.37359421 63.52882526 78.05953685 54.6875 88.8125 C44.71779482 96.92737631 35.58444918 98.04287796 23 97 C14.6645356 95.14020552 7.788487 88.88461277 3 82 C-0.97457462 73.57570782 -0.38711476 64.34993146 -0.29296875 55.2734375 C-0.28736255 53.67347616 -0.2830973 52.07350962 -0.28010559 50.47354126 C-0.26873728 46.29450874 -0.23934079 42.11579686 -0.20599365 37.93688965 C-0.17511835 33.65979345 -0.16156321 29.38264465 -0.14648438 25.10546875 C-0.114462 16.73683322 -0.06336474 8.36845667 0 0 Z " fill="#000000" transform="translate(209,635)"/>
<path d="M0 0 C17.49 0 34.98 0 53 0 C53 3.63 53 7.26 53 11 C46.4 11 39.8 11 33 11 C33 38.72 33 66.44 33 95 C29.04 95 25.08 95 21 95 C21 67.28 21 39.56 21 11 C14.07 11 7.14 11 0 11 C0 7.37 0 3.74 0 0 Z " fill="#000000" transform="translate(962,635)"/>
<path d="M0 0 C17.49 0 34.98 0 53 0 C53 3.63 53 7.26 53 11 C46.07 11 39.14 11 32 11 C32 38.72 32 66.44 32 95 C28.37 95 24.74 95 21 95 C21 67.28 21 39.56 21 11 C14.07 11 7.14 11 0 11 C0 7.37 0 3.74 0 0 Z " fill="#000000" transform="translate(1456,635)"/>
<path d="M0 0 C3.63 0 7.26 0 11 0 C11 27.72 11 55.44 11 84 C22.88 84 34.76 84 47 84 C47 87.63 47 91.26 47 95 C31.49 95 15.98 95 0 95 C0 63.65 0 32.3 0 0 Z " fill="#000000" transform="translate(1097,635)"/>
<path d="M0 0 C3.96 0 7.92 0 12 0 C12 31.35 12 62.7 12 95 C8.04 95 4.08 95 0 95 C0 63.65 0 32.3 0 0 Z " fill="#000000" transform="translate(1155,635)"/>
<path d="M0 0 C3.63 0 7.26 0 11 0 C11 31.35 11 62.7 11 95 C7.37 95 3.74 95 0 95 C0 63.65 0 32.3 0 0 Z " fill="#000000" transform="translate(845,635)"/>
<path d="M0 0 C5.27336646 2.09752952 9.01896991 2.14574311 14.5 0.9375 C15.510625 0.751875 16.52125 0.56625 17.5625 0.375 C18.201875 0.230625 18.84125 0.08625 19.5 -0.0625 C23.5 5.6875 23.5 5.6875 23.5 7.9375 C16.52903888 12.1714894 10.68651524 14.27073248 2.5 12.9375 C-0.14111219 12.00307142 -2.65786169 10.91653537 -5.2109375 9.765625 C-8.56110951 8.55361738 -11.10846969 9.05570212 -14.5 9.9375 C-15.7065625 10.2159375 -15.7065625 10.2159375 -16.9375 10.5 C-17.7109375 10.7165625 -17.7109375 10.7165625 -18.5 10.9375 C-18.5 11.5975 -18.5 12.2575 -18.5 12.9375 C-19.16 12.9375 -19.82 12.9375 -20.5 12.9375 C-21.7890625 11.1875 -21.7890625 11.1875 -23.125 8.9375 C-23.57101562 8.195 -24.01703125 7.4525 -24.4765625 6.6875 C-24.81429687 6.11 -25.15203125 5.5325 -25.5 4.9375 C-17.34766099 -2.26689261 -10.35845868 -4.19270947 0 0 Z " fill="#000000" transform="translate(639.5,615.0625)"/>
<path d="M0 0 C0.33 0 0.66 0 1 0 C1 1.65 1 3.3 1 5 C0.67 5 0.34 5 0 5 C0 3.35 0 1.7 0 0 Z " fill="#00E700" transform="translate(1113,333)"/>
</svg>
