<?xml version="1.0" encoding="UTF-8"?>
<svg xmlns="http://www.w3.org/2000/svg" version="1.1" width="1614" height="754">
<path class="logoPath" style="animation-delay: 0.1s;" d="M0 0 C0.82806152 0.40444336 1.65612305 0.80888672 2.50927734 1.22558594 C20.25849444 9.99299331 36.65526372 20.49039544 52 33 C52.82612793 33.67168213 52.82612793 33.67168213 53.66894531 34.35693359 C66.60256884 44.95808314 79.05448926 56.49571226 89 70 C85.00655708 74.93925835 80.73184332 79.14837354 75.97265625 83.34765625 C72.42854314 86.5098807 68.96367206 89.75023643 65.5 93 C61.36674352 96.87207933 57.22398688 100.72657172 53 104.5 C48.7983304 108.25423723 44.67649765 112.0879297 40.5625 115.9375 C39.91700195 116.53884766 39.27150391 117.14019531 38.60644531 117.75976562 C35.71151465 120.45701513 32.82581044 123.16058506 29.98046875 125.91015625 C18.12773608 137.15244775 5.39653051 142.98180185 -11 143 C-26.48120833 142.09514723 -38.6145776 137.35347666 -51.1484375 128.625 C-72.73528539 113.68280207 -98.09106352 105.32216759 -124 102 C-124.98355469 101.86851562 -125.96710938 101.73703125 -126.98046875 101.6015625 C-167.50817726 97.2739284 -214.17658888 105.55698395 -247.0625 131 C-249.06265604 132.64141838 -251.04252933 134.30790454 -253 136 C-253.50289551 136.42216797 -254.00579102 136.84433594 -254.52392578 137.27929688 C-285.34025513 163.22783631 -299.6767108 202.25321622 -303.46484375 241.43359375 C-303.72826209 244.95906936 -303.90124971 248.46645691 -304 252 C-304.03996094 252.94746094 -304.07992187 253.89492188 -304.12109375 254.87109375 C-304.9572601 290.33438424 -293.37694457 325.47851672 -271 353 C-270.33726074 353.82298584 -270.33726074 353.82298584 -269.66113281 354.66259766 C-243.13648417 387.39848101 -206.45213464 409.89002617 -164.16796875 414.5859375 C-121.26199882 418.49023219 -78.45488844 407.54487927 -40 389 C-39.13197754 388.58911133 -38.26395508 388.17822266 -37.36962891 387.75488281 C-18.98225875 379.02946409 -1.5789267 368.80810032 15 357 C5.70934692 355.48502685 -3.58674935 354.31277882 -12.9453125 353.30859375 C-14.33205857 353.15724927 -15.71876647 353.00555465 -17.10543823 352.85353088 C-22.18563383 352.29727647 -27.26645334 351.74682064 -32.34735107 351.19702148 C-36.67659819 350.72841675 -41.00554452 350.25720285 -45.33410263 349.78227425 C-47.35186476 349.56197266 -49.37001975 349.34555759 -51.38821411 349.1292572 C-53.21689529 348.92883568 -53.21689529 348.92883568 -55.08251953 348.72436523 C-56.15583527 348.60826401 -57.229151 348.49216278 -58.33499146 348.37254333 C-61 348 -61 348 -64 347 C-64.05116734 339.7083642 -64.08592757 332.41677557 -64.10986328 325.125 C-64.11985332 322.6500475 -64.13344995 320.1751066 -64.15087891 317.70019531 C-64.39114451 282.67795097 -64.39114451 282.67795097 -58.4375 271.6875 C-58.08236328 271.01654297 -57.72722656 270.34558594 -57.36132812 269.65429688 C-52.38336346 260.64862699 -46.17973124 255.26038787 -37.125 250.5625 C-36.48949219 250.23185547 -35.85398437 249.90121094 -35.19921875 249.56054688 C-22.95222661 243.68346916 -9.37676225 244.73573591 3.85546875 244.8046875 C5.96966925 244.80842327 8.08387149 244.81126757 10.19807434 244.81326294 C15.72999961 244.820855 21.26181784 244.84046494 26.79370117 244.8626709 C32.45164543 244.88322526 38.10960719 244.89228507 43.76757812 244.90234375 C54.8450988 244.92371543 65.92254046 244.95779724 77 245 C77.20535204 274.30870862 77.36460648 303.61736616 77.45958797 332.92664713 C77.47084421 336.38754133 77.48249312 339.8484341 77.49438477 343.30932617 C77.49792596 344.34281993 77.49792596 344.34281993 77.50153869 345.39719235 C77.54069153 356.55067669 77.611647 367.70374316 77.69437516 378.85697968 C77.77856576 390.30291592 77.82786071 401.74851318 77.84679645 413.19476789 C77.8585369 419.6234727 77.88615508 426.05123009 77.95157051 432.47963142 C78.01263996 438.52994489 78.03150817 444.57892039 78.01796913 450.62951279 C78.02044605 452.85036299 78.03836209 455.07125771 78.07284927 457.29184151 C78.32060349 474.06662211 78.32060349 474.06662211 75.08918571 478.79745293 C72.77833116 480.63919189 70.69047619 481.80509224 68 483 C66.45522858 484.00291183 64.92211288 485.02421949 63.40625 486.0703125 C-7.43771573 530.69398429 -90.90375069 549.24890502 -239 539 C-261.92931334 533.64305147 -283.79826584 526.23461439 -305 516 C-305.83611816 515.5982959 -306.67223633 515.1965918 -307.53369141 514.78271484 C-331.86023376 502.94805475 -353.84217905 487.3825291 -373.72265625 469.08984375 C-375.25280764 467.68567395 -376.80288035 466.30293584 -378.37109375 464.94140625 C-390.30271245 454.53703475 -400.52838149 442.64554211 -410 430 C-410.41314453 429.4544043 -410.82628906 428.90880859 -411.25195312 428.34667969 C-458.35077731 365.83437342 -471.64497028 285.32184056 -461 209 C-454.10933642 162.95225101 -436.6484911 118.21118693 -407 82 C-406.56864746 81.47245117 -406.13729492 80.94490234 -405.69287109 80.40136719 C-390.59118763 62.01910627 -374.15611598 45.18503308 -355 31 C-354.35869141 30.52353027 -353.71738281 30.04706055 -353.05664062 29.55615234 C-307.9439095 -3.70845868 -255.56603644 -22.70875403 -200 -29 C-198.62376465 -29.15662109 -198.62376465 -29.15662109 -197.21972656 -29.31640625 C-131.4868165 -36.3887929 -59.80890585 -29.29152455 0 0 Z " fill="#00FE00" transform="translate(464,31)"/>
<path class="logoPath" style="animation-delay: 0.5s;" d="M0 0 C14.3784019 -0.09379403 28.75675578 -0.16388319 43.13540173 -0.20724869 C49.81295501 -0.22779977 56.49028917 -0.25628361 63.16772461 -0.30175781 C69.61924057 -0.34541544 76.07055872 -0.36917927 82.52221107 -0.37950897 C84.97602766 -0.38686464 87.42983418 -0.401228 89.8835659 -0.42292023 C114.55375288 -0.63222155 114.55375288 -0.63222155 125 4 C126.15757812 4.50660156 127.31515625 5.01320313 128.5078125 5.53515625 C142.49058073 13.69524935 152.52525335 25.10466224 157.16541672 40.73583794 C159.33883053 50.29111125 158.5489911 60.53407595 158.51416016 70.26586914 C158.51962709 72.82331259 158.52687207 75.38075276 158.53575134 77.93818665 C158.55104823 83.42898322 158.55441617 88.9195781 158.54698563 94.41038704 C158.53640126 102.37938834 158.54994766 110.34821395 158.56945018 118.31719189 C158.60073474 131.28999376 158.61578894 144.26275826 158.61914062 157.2355957 C158.61934461 158.01042179 158.6195486 158.78524788 158.61975877 159.58355355 C158.61996214 160.35922745 158.62016551 161.13490136 158.62037504 161.93408054 C158.62328558 172.89233873 158.63007295 183.85058522 158.64160156 194.80883789 C158.64240686 195.57815803 158.64321215 196.34747817 158.64404185 197.14011104 C158.65788315 210.04993239 158.67973835 222.95973358 158.7054714 235.86953634 C158.72076772 243.79875193 158.72816263 251.72790065 158.72467647 259.65713071 C158.72236078 265.76504513 158.72986071 271.87291308 158.74055672 277.98081779 C158.7432019 280.45724233 158.74255342 282.93367337 158.73804665 285.41009521 C158.66436694 328.96955724 160.31962743 377.15866047 192.296875 410.38671875 C198.77836095 416.62461944 206.05408076 420.93796057 214 425 C214.94359375 425.4846875 215.8871875 425.969375 216.859375 426.46875 C243.4429669 438.78431235 278.15375764 437.55354346 305.234375 427.83984375 C327.79689795 418.93509167 343.44714339 403.10531847 353.109375 381.12988281 C357.12211658 371.53362251 360.03702103 361.65546589 362.25 351.5 C362.40114258 350.81446045 362.55228516 350.1289209 362.70800781 349.42260742 C366.37694901 331.26217668 366.30944776 312.9602879 366.31667423 294.51889014 C366.3204117 290.55595773 366.33558796 286.59306569 366.34928894 282.63015747 C366.37143082 275.7845694 366.38652216 268.93899595 366.39665604 262.09337997 C366.41131789 252.19609576 366.43687509 242.29886255 366.46498732 232.40160848 C366.51031989 216.33920439 366.54699025 200.2767929 366.578125 184.21435547 C366.60836625 168.6225454 366.6427419 153.03075337 366.68261719 137.43896484 C366.68507874 136.4759073 366.68754028 135.51284975 366.69007643 134.52060865 C366.70245211 129.68864081 366.71490843 124.85667318 366.72740483 120.02470565 C366.83076968 80.01649548 366.92003944 40.00826339 367 0 C381.00454883 -0.07032543 395.00906996 -0.12290282 409.01375961 -0.15543652 C415.5175364 -0.1710554 422.02119408 -0.19222465 428.52490234 -0.22631836 C434.80782483 -0.25904648 441.09063315 -0.2768814 447.37363434 -0.28463173 C449.76406907 -0.29015112 452.15449794 -0.30092886 454.54488373 -0.31719017 C457.90733577 -0.33914307 461.26932314 -0.34195946 464.63183594 -0.34057617 C465.60792313 -0.351362 466.58401031 -0.36214783 467.5896759 -0.3732605 C483.6331542 -0.30239456 496.83315235 5.65841113 508.1953125 16.87109375 C521.5655026 31.06273817 523.1653111 48.73353668 523.11352539 67.33227539 C523.11324284 68.76215615 523.11340257 70.19203705 523.1139679 71.62191772 C523.11425324 75.47871269 523.10839917 79.33547616 523.10139394 83.19226384 C523.09511647 87.23213237 523.09455314 91.27200173 523.09336853 95.31187439 C523.09026812 102.95080573 523.08207221 110.58972264 523.07201904 118.22864765 C523.06081773 126.93001892 523.05533735 135.63139091 523.05032361 144.33276761 C523.03988845 162.22185322 523.02231412 180.11092545 523 198 C522.32730072 198.3630423 521.65460144 198.72608459 520.96151733 199.10012817 C517.85657072 200.77660562 514.75250087 202.45470031 511.6484375 204.1328125 C510.06180298 204.98903198 510.06180298 204.98903198 508.44311523 205.86254883 C499.1690296 210.87874332 490.00409775 216.06885837 480.875 221.34326172 C478.22919844 222.86792284 475.57913637 224.38492291 472.92715454 225.89880371 C470.56978706 227.24508158 468.2142901 228.59461111 465.85906982 229.94464111 C464.17113369 230.9110857 462.4813437 231.8742902 460.79150391 232.83740234 C455.31236745 235.98564013 450.05501302 239.2051398 445 243 C447.53353816 244.68902544 449.84142372 245.92118685 452.59375 247.1796875 C453.52807861 247.60781738 454.46240723 248.03594727 455.42504883 248.47705078 C456.43978271 248.93837402 457.4545166 249.39969727 458.5 249.875 C459.55791748 250.3582373 460.61583496 250.84147461 461.70581055 251.33935547 C469.71763049 254.98860493 477.76111582 258.56409705 485.8125 262.125 C493.87141047 265.69170962 501.9061408 269.29831525 509.875 273.0625 C510.63530518 273.42037598 511.39561035 273.77825195 512.17895508 274.14697266 C512.88044678 274.48132324 513.58193848 274.81567383 514.3046875 275.16015625 C514.90265137 275.44511963 515.50061523 275.73008301 516.11669922 276.02368164 C516.73818848 276.3458667 517.35967773 276.66805176 518 277 C518.89041992 277.38567139 519.78083984 277.77134277 520.69824219 278.16870117 C523 280 523 280 523.58349609 283.18847656 C523.56367676 284.49268555 523.54385742 285.79689453 523.5234375 287.140625 C523.51918762 287.85103439 523.51493774 288.56144379 523.51055908 289.29338074 C523.49008239 291.61331074 523.43334957 293.93073854 523.375 296.25 C523.35162465 297.85161959 523.32998633 299.45326544 523.31005859 301.05493164 C523.24305248 305.70443123 523.1268018 310.35180463 523 315 C522.97099609 316.18126465 522.94199219 317.3625293 522.91210938 318.57958984 C522.76234698 324.19829189 522.52248663 329.80294337 522.16210938 335.41210938 C522.05163689 337.17567619 521.95452134 338.94011857 521.86914062 340.70507812 C521.29870265 352.20477697 520.03271148 360.50583951 513 370 C512.23030653 371.12352569 511.46486214 372.24997111 510.703125 373.37890625 C496.97400581 393.46651267 479.62913676 412.78514027 460.57421875 427.92578125 C458.17745505 429.8570127 455.89797717 431.86325307 453.625 433.9375 C448.01286185 438.96668718 442.02308988 443.48193083 436 448 C435.28489258 448.53963379 434.56978516 449.07926758 433.83300781 449.63525391 C407.22199453 469.68131096 378.74924191 486.0430168 349 501 C348.14003418 501.43731445 347.28006836 501.87462891 346.39404297 502.32519531 C330.12019764 510.56318747 313.13930385 517.20876448 296.2462616 524.04818726 C291.107399 526.13233841 285.98563572 528.25243372 280.87890625 530.4140625 C260.19601394 539.15845527 239.38786501 546.16722188 217.76245117 552.19433594 C210.6307058 554.19345034 203.71555667 556.37090645 196.859375 559.1875 C189.30956756 561.33280047 182.32813935 559.4103128 174.9375 557.5 C173.89110352 557.23227783 172.84470703 556.96455566 171.76660156 556.6887207 C140.14317653 548.36539349 109.22032435 535.16939143 84 514 C83.42314453 513.52175781 82.84628906 513.04351563 82.25195312 512.55078125 C71.04597108 503.24634792 60.97039531 493.52703186 52 482 C51.36989014 481.20045898 51.36989014 481.20045898 50.72705078 480.38476562 C42.28497479 469.60445057 35.46895506 458.05038657 29 446 C28.4416748 444.9776123 28.4416748 444.9776123 27.87207031 443.93457031 C6.75166376 404.70518359 -0.22446559 356.73862172 -0.12025452 312.78199768 C-0.12069202 311.42024193 -0.12157021 310.05848626 -0.12284368 308.69673103 C-0.12505343 305.00229557 -0.12111633 301.30788973 -0.11606562 297.61345804 C-0.11171005 293.61163936 -0.11321114 289.60982209 -0.1139679 285.60800171 C-0.11448992 278.69032464 -0.11137687 271.77265706 -0.10573006 264.85498238 C-0.09757127 254.85342942 -0.09499536 244.85188102 -0.09374207 234.8503251 C-0.0915584 218.61985932 -0.08491696 202.38939859 -0.07543945 186.15893555 C-0.06624756 170.4011233 -0.05917543 154.64331243 -0.05493164 138.88549805 C-0.05466892 137.91269135 -0.05440619 136.93988464 -0.05413551 135.93759895 C-0.05283038 131.05686718 -0.0515667 126.17613539 -0.05032361 121.2954036 C-0.03997235 80.86359889 -0.02237276 40.43179973 0 0 Z " fill="#00FE00" transform="translate(572,30)"/>
<path class="logoPath" style="animation-delay: 0.9s;" d="M0 0 C69.05623212 -0.12099405 69.05623212 -0.12099405 98.06640625 -0.14648438 C104.70459007 -0.15235645 111.34277368 -0.15841746 117.98095703 -0.16479492 C119.22864103 -0.16598179 119.22864103 -0.16598179 120.50153077 -0.16719264 C133.86468485 -0.18017897 147.22779951 -0.20379575 160.59093036 -0.23145839 C174.34332368 -0.2596857 188.09569662 -0.27621251 201.84811771 -0.28226548 C210.30853688 -0.28634636 218.76884463 -0.29915105 227.22922944 -0.3237494 C233.06033159 -0.33982155 238.89137762 -0.34435289 244.72250022 -0.34050413 C248.06802526 -0.33861521 251.41320583 -0.34287645 254.7587204 -0.35761642 C326.72815244 -0.65869737 397.8434595 17.19803543 450.1875 68.875 C477.49669477 96.37417738 493.22221549 131.95852441 499 170 C499.11714355 170.7415332 499.23428711 171.48306641 499.35498047 172.24707031 C507.15287964 223.66917508 497.18826039 279.70170796 466.5012207 322.20068359 C461.90129124 328.34838572 456.85456528 334.01242792 451.47802734 339.48681641 C450.02292143 340.97653336 448.59799207 342.49064031 447.17578125 344.01171875 C424.99235823 367.38816778 395.22237105 383.62979226 365 394 C363.67887207 394.45802002 363.67887207 394.45802002 362.33105469 394.92529297 C335.53107733 404.06187061 305.46653077 410 277 410 C276.87799225 409.28566299 276.7559845 408.57132599 276.63027954 407.83534241 C273.66500457 390.5845608 270.27151801 373.50161957 266.375 356.4375 C265.82124509 353.99001082 265.26795855 351.54241564 264.71508789 349.09472656 C259.05659922 324.08836265 253.30769534 299.1022316 247.56941986 274.11408043 C243.11628541 254.71930025 238.71406917 235.31635105 234.45016479 215.87893677 C229.14376624 191.69172315 223.37745429 167.62853382 217.51441956 143.57200623 C217.05288734 141.67817955 217.05288734 141.67817955 216.58203125 139.74609375 C216.27760605 138.49703751 215.97318085 137.24798126 215.65953064 135.96107483 C212.96261816 124.879585 210.31423654 113.78718702 207.71881104 102.68148804 C207.28584295 100.83004919 206.85126667 98.97898559 206.41497803 97.12832642 C205.82547106 94.62565289 205.24180249 92.12169788 204.66015625 89.6171875 C204.40355476 88.53287193 204.40355476 88.53287193 204.14176941 87.426651 C203.38933101 84.15325684 203 81.38644583 203 78 C191.88260837 83.44003728 180.90179012 89.07302256 170.06005859 95.04394531 C161.75040036 99.61303681 153.38057271 104.06293084 145 108.5 C134.05245656 114.2995268 123.14041319 120.15657423 112.27734375 126.11328125 C108.569004 128.14621248 104.8520825 130.16233823 101.12890625 132.16796875 C90.11215208 138.10390018 79.16779003 144.14300924 68.29321289 150.33569336 C61.66673168 154.09519326 54.96844581 157.68183024 48.20629883 161.18994141 C41.84805479 164.50769279 35.6066467 168.01348248 29.375 171.5625 C22.33785857 175.56935256 15.28126765 179.52175801 8.125 183.3125 C7.41134277 183.69156494 6.69768555 184.07062988 5.96240234 184.46118164 C1.13098333 187 1.13098333 187 0 187 C0 125.29 0 63.58 0 0 Z " fill="#00FE00" transform="translate(1113,30)"/>
<path class="logoPath" style="animation-delay: 0.9s;" d="M0 0 C3.23302417 1.39420156 6.45366024 2.81564695 9.67242432 4.24240112 C11.08034456 4.86293175 12.48830426 5.48337283 13.89630127 6.10372925 C31.40011109 13.83318999 48.75580757 21.87403351 66.01217651 30.14035034 C67.26212755 30.73877725 68.51273386 31.33583787 69.7640686 31.93136597 C84.65266334 39.02713781 84.65266334 39.02713781 91.42242432 43.67990112 C91.42242432 44.00990112 91.42242432 44.33990112 91.42242432 44.67990112 C52.48242432 44.67990112 13.54242432 44.67990112 -26.57757568 44.67990112 C-26.45902893 76.06230361 -26.45902893 76.06230361 -26.30731201 107.44454956 C-26.29376221 113.5475769 -26.29376221 113.5475769 -26.29124451 116.41482544 C-26.28667161 118.39515207 -26.27619147 120.37547093 -26.260849 122.35574341 C-26.11353629 142.39066768 -28.38933989 159.15918503 -42.94085693 174.32833862 C-57.60079088 187.40282786 -73.83190503 190.86880952 -93.07611084 190.79342651 C-94.0724353 190.79357254 -95.06875977 190.79371857 -96.09527588 190.79386902 C-99.35241965 190.79317847 -102.60950453 190.78542668 -105.86663818 190.77755737 C-108.1392107 190.77569014 -110.41178362 190.77426768 -112.68435669 190.77326965 C-118.63876474 190.76946852 -124.59314805 190.75965896 -130.54754639 190.74856567 C-136.63437566 190.73829966 -142.72120898 190.73376095 -148.80804443 190.72872925 C-160.73123409 190.71803436 -172.65439895 190.70045723 -184.57757568 190.67990112 C-184.57757568 183.74990112 -184.57757568 176.81990112 -184.57757568 169.67990112 C-180.64851318 167.54521362 -180.64851318 167.54521362 -176.64007568 165.36740112 C-156.15508506 154.04802538 -136.57295721 140.82257319 -119.57757568 124.67990112 C-118.31237278 123.58999742 -117.04179162 122.50629552 -115.76507568 121.42990112 C-105.77921235 112.71795451 -96.71932862 103.12510374 -88.57757568 92.67990112 C-87.72261345 91.62504726 -86.86575364 90.5717293 -86.00726318 89.51974487 C-66.35113196 65.25632116 -51.92023655 37.99201454 -40.62054443 8.96261597 C-38.34717331 3.20305167 -36.19174277 -2.07938424 -31.39007568 -6.19509888 C-20.84736536 -10.412183 -9.73059164 -4.1322543 0 0 Z " fill="#00FE00" transform="translate(1297.5775756835938,395.3200988769531)"/>
<path class="logoPath" style="animation-delay: 0.5s;" d="M0 0 C0.66 0 1.32 0 2 0 C2.20753906 1.13695312 2.41507813 2.27390625 2.62890625 3.4453125 C5.60094305 18.72271193 11.20359341 30.7415791 21 43 C21.41266113 43.51949219 21.82532227 44.03898438 22.25048828 44.57421875 C31.76392405 56.46336594 42.57063089 66.1757513 55 75 C55.85851562 75.61125732 55.85851562 75.61125732 56.734375 76.23486328 C66.06248594 82.82284164 75.69687948 88.10290759 86 93 C88.00225224 93.99548279 90.00308638 94.99385092 92 96 C92 96.66 92 97.32 92 98 C5.32603646 98.19572743 5.32603646 98.19572743 -24.3125 97.5625 C-25.29782715 97.54285187 -26.2831543 97.52320374 -27.29833984 97.50296021 C-29.98686138 97.44734962 -32.67504015 97.38411444 -35.36328125 97.31640625 C-36.12671341 97.29968872 -36.89014557 97.28297119 -37.67671204 97.26574707 C-42.7655109 97.11724455 -42.7655109 97.11724455 -45 96 C-45 95.34 -45 94.68 -45 94 C-43.53125 92.58984375 -43.53125 92.58984375 -41.5 90.9375 C-15.72500966 68.78005217 -3.52453701 32.82854473 0 0 Z " fill="#00fe00" transform="translate(561,474)"/>
</svg>
